<?xml version="1.0" encoding="UTF-8" standalone="no"?><!DOCTYPE svg PUBLIC "-//W3C//DTD SVG 1.1//EN" "http://www.w3.org/Graphics/SVG/1.1/DTD/svg11.dtd"><svg width="100%" height="100%" viewBox="0 0 131 30" version="1.1" xmlns="http://www.w3.org/2000/svg" xmlns:xlink="http://www.w3.org/1999/xlink" xml:space="preserve" xmlns:serif="http://www.serif.com/" style="fill-rule:evenodd;clip-rule:evenodd;stroke-linejoin:round;stroke-miterlimit:2;"><g><path d="M81.092,21.192c-3.403,3.42 -8.919,3.42 -12.322,-0c-3.402,-3.42 -3.402,-8.964 0,-12.384c3.403,-3.419 8.919,-3.419 12.322,0c3.402,3.42 3.402,8.964 -0,12.384Zm-16.429,-16.511c-5.672,5.699 -5.672,14.939 0,20.638c5.671,5.7 14.865,5.7 20.536,-0c5.671,-5.699 5.671,-14.939 -0.001,-20.638c-5.67,-5.701 -14.864,-5.701 -20.535,0Z" style="fill:#175d46;fill-rule:nonzero;"/><rect x="92.358" y="0.406" width="5.808" height="29.188" style="fill:#175d46;fill-rule:nonzero;"/><path d="M62.152,23.757l-14.522,-0.001l0,-23.349l-5.809,-0l-0,23.35l-14.521,-0.001l0,5.837l34.852,0l-0,-5.837Z" style="fill:#175d46;fill-rule:nonzero;"/><path d="M5.809,6.244l17.426,-0l0,8.756c-0.002,3.813 -2.426,7.054 -5.809,8.257c-0.909,0.323 -1.886,0.499 -2.904,0.499l-8.713,0l-0,-17.512Zm-5.809,23.35l14.522,0c0.994,0 1.965,-0.101 2.904,-0.293c2.146,-0.438 4.119,-1.351 5.809,-2.625c3.526,-2.663 5.808,-6.902 5.808,-11.676l-0,-14.593l-29.043,-0l-0,29.187Z" style="fill:#f8b959;fill-rule:nonzero;"/><path d="M124.304,23.757l-17.426,-0.001l0,-8.757c0,-3.813 2.424,-7.053 5.808,-8.256c0.909,-0.323 1.886,-0.499 2.905,-0.499l8.713,-0l0,17.513Zm5.808,-23.35l-14.522,-0c-0.995,-0 -1.966,0.1 -2.904,0.292c-2.145,0.438 -4.12,1.351 -5.808,2.625c-3.527,2.663 -5.807,6.901 -5.807,11.675l0,14.594l29.041,0l0,-29.186Z" style="fill:#f8b959;fill-rule:nonzero;"/></g></svg>