<?xml version="1.0" encoding="UTF-8" standalone="no"?><!DOCTYPE svg PUBLIC "-//W3C//DTD SVG 1.1//EN" "http://www.w3.org/Graphics/SVG/1.1/DTD/svg11.dtd"><svg width="100%" height="100%" viewBox="0 0 65 65" version="1.1" xmlns="http://www.w3.org/2000/svg" xmlns:xlink="http://www.w3.org/1999/xlink" xml:space="preserve" xmlns:serif="http://www.serif.com/" style="fill-rule:evenodd;clip-rule:evenodd;stroke-linejoin:round;stroke-miterlimit:2;"><g><path d="M32.005,6.515l-0.01,0c-0.161,0.001 -0.322,0.04 -0.468,0.119c-0.072,0.038 -0.14,0.086 -0.202,0.143c-0.274,0.245 -5.785,5.212 -10.216,11.919c-3.087,4.674 -5.628,10.187 -5.628,15.546c0,9.773 8.342,14.926 13.097,17.028c0.505,0.223 1.096,-0.006 1.319,-0.511c0.223,-0.505 -0.006,-1.096 -0.511,-1.319c-4.273,-1.888 -11.905,-6.415 -11.905,-15.198c0,-4.987 2.425,-10.095 5.297,-14.443c3.473,-5.257 7.63,-9.41 9.222,-10.92c1.592,1.51 5.749,5.663 9.222,10.92c2.872,4.348 5.297,9.456 5.297,14.443c0,6.081 -3.681,10.116 -7.33,12.65c-2.387,1.657 -4.773,2.68 -6.182,3.202c-0.002,-2.998 -0.003,-6.44 -0.005,-9.982c6.007,-2.55 10.629,-10.081 10.629,-10.081c0.287,-0.472 0.137,-1.088 -0.334,-1.374c-0.472,-0.287 -1.088,-0.137 -1.374,0.334c-0,0 -3.805,6.322 -8.923,8.92l-0.004,-7.88l-0.001,-1.665c4.7,-2.8 6.814,-7.509 6.814,-7.509c0.226,-0.503 0.002,-1.096 -0.502,-1.322c-0.503,-0.226 -1.096,-0.002 -1.322,0.502c0,-0 -1.561,3.462 -4.991,5.939l-0.004,-7.246c-0.001,-1.577 -0.002,-3.154 -0.003,-4.731c-0,-0.133 -0.027,-0.266 -0.079,-0.389c-0.096,-0.226 -0.276,-0.413 -0.499,-0.517c-0.086,-0.04 -0.177,-0.067 -0.27,-0.082c-0.107,-0.016 -0.217,-0.015 -0.323,0.004c-0.103,0.017 -0.203,0.052 -0.295,0.1c-0.107,0.057 -0.203,0.132 -0.282,0.222c-0.083,0.094 -0.149,0.202 -0.191,0.32c-0.041,0.11 -0.061,0.227 -0.061,0.344c0.001,1.576 0.002,3.153 0.003,4.73c0.002,3.767 0.004,7.534 0.006,11.301l0,0.236c-3.424,-2.476 -4.981,-5.931 -4.981,-5.931c-0.226,-0.504 -0.819,-0.728 -1.322,-0.502c-0.504,0.226 -0.728,0.819 -0.502,1.322c0,0 2.112,4.704 6.806,7.504l0.006,9.551c-5.119,-2.597 -8.926,-8.921 -8.926,-8.921c-0.286,-0.471 -0.902,-0.621 -1.374,-0.334c-0.471,0.286 -0.621,0.902 -0.334,1.374c-0,-0 4.625,7.534 10.635,10.083l0.003,5.404l0.001,1.54c-0.011,0.083 -0.011,0.169 0,0.254l0.002,2.56c-1.165,0.412 -1.999,1.524 -1.999,2.829l0,0c0.002,1.657 1.347,3 3.003,2.999c1.654,-0.002 2.998,-1.346 2.997,-3.001c-0,-1.306 -0.836,-2.417 -2.001,-2.829l-0.002,-1.956c1.347,-0.456 4.335,-1.606 7.322,-3.68c4.111,-2.854 8.189,-7.441 8.189,-14.292c0,-5.359 -2.541,-10.872 -5.628,-15.546c-4.431,-6.707 -9.942,-11.674 -10.216,-11.919c-0.062,-0.057 -0.13,-0.105 -0.202,-0.143c-0.146,-0.079 -0.307,-0.118 -0.468,-0.119Zm-0.994,50.486c0,-0.553 0.448,-1.001 1,-1.001c0.552,-0.001 1,0.447 1,0.999l0,0c0.001,0.553 -0.448,1.001 -0.999,1.001c-0.552,0.001 -1,-0.448 -1.001,-0.999Z"/></g></svg>