<?xml version="1.0" encoding="UTF-8" standalone="no"?><!DOCTYPE svg PUBLIC "-//W3C//DTD SVG 1.1//EN" "http://www.w3.org/Graphics/SVG/1.1/DTD/svg11.dtd"><svg width="100%" height="100%" viewBox="0 0 65 65" version="1.1" xmlns="http://www.w3.org/2000/svg" xmlns:xlink="http://www.w3.org/1999/xlink" xml:space="preserve" xmlns:serif="http://www.serif.com/" style="fill-rule:evenodd;clip-rule:evenodd;stroke-linejoin:round;stroke-miterlimit:2;"><path d="M21.505,58l20.997,0c0,-0 1.053,0.002 2.105,-0.399c1.215,-0.463 2.393,-1.416 2.393,-3.268l0,-21.333c-0,-0 0.016,-3.273 -2.554,-5.885c-1.174,-1.193 -2.896,-2.269 -5.446,-2.788l0,-9.327c0,-0.552 -0.448,-1 -1,-1l-2.324,-0c-0.264,-0.62 -0.64,-1.651 -0.64,-2.5c0,0 0,-4.5 0,-4.5c-0,-0 0.004,-2.988 -3,-3l-0.018,-0c-3.022,-0 -3.018,3 -3.018,3l0,4.5c0,0.849 -0.376,1.88 -0.64,2.5l-2.353,-0c-0.552,-0 -1,0.448 -1,1l0,9.327c-2.55,0.519 -4.272,1.595 -5.446,2.788c-2.57,2.612 -2.554,5.885 -2.554,5.885l0,21.333c0,1.852 1.178,2.805 2.393,3.268c1.052,0.401 2.105,0.399 2.105,0.399Zm0,-2l20.997,0c-0,0 0.696,-0.002 1.393,-0.268c0.534,-0.204 1.105,-0.584 1.105,-1.399l0,-20.333l-5,0c-0.552,0 -1,-0.448 -1,-1c-0,-0.552 0.448,-1 1,-1l4.869,0c-0.193,-0.908 -0.669,-2.284 -1.849,-3.483c-1.377,-1.399 -3.689,-2.517 -7.515,-2.517l-2.525,0c0.002,3.451 0.007,15.029 0.011,22.17c1.165,0.412 2.001,1.523 2.001,2.829c0.001,1.655 -1.342,2.999 -2.998,3.001c-1.656,0.001 -3,-1.342 -3.002,-2.999l0,0c0,-1.305 0.834,-2.417 1.999,-2.829c-0.002,-4.303 -0.005,-10.215 -0.007,-14.991c-0.085,0.466 -0.494,0.819 -0.984,0.819l-10.993,0l0,20.333c0,0.815 0.571,1.195 1.105,1.399c0.697,0.266 1.393,0.268 1.393,0.268Zm9.487,-4.999c0,-0.552 0.448,-1.001 1,-1.001c0.552,-0.001 1,0.447 1,0.999l0,0c0.001,0.553 -0.448,1.001 -1,1.001c-0.552,0.001 -0.999,-0.448 -1,-0.999Zm3.008,-17.001l3,0c0.552,0 1,-0.448 1,-1c0,-0.552 -0.448,-1 -1,-1l-3,0c-0.552,0 -1,0.448 -1,1c0,0.552 0.448,1 1,1Zm-3.016,-1.182l-0.004,-6.818l-2.478,0c-3.826,0 -6.138,1.118 -7.515,2.517c-1.18,1.199 -1.656,2.575 -1.849,3.483l10.862,0c0.49,0 0.898,0.353 0.984,0.818Zm4.528,-8.818l1.488,0c0,0 0,-8 0,-8l-5.011,-0l-4.982,-0c0,-0 0,8 -0,8l8.498,0l0.007,0Zm-3.506,-18c-1.002,0.008 -1.006,1 -1.006,1c0,0 0,4.5 0,4.5c0,0.806 -0.252,1.742 -0.515,2.5l3.066,0c-0.263,-0.758 -0.515,-1.694 -0.515,-2.5c0,0 0,-4.5 0,-4.5c0,0 -0.004,-1 -1.018,-1l-0.012,0Z"/></svg>