<?xml version="1.0" encoding="UTF-8" standalone="no"?><!DOCTYPE svg PUBLIC "-//W3C//DTD SVG 1.1//EN" "http://www.w3.org/Graphics/SVG/1.1/DTD/svg11.dtd"><svg width="100%" height="100%" viewBox="0 0 65 65" version="1.1" xmlns="http://www.w3.org/2000/svg" xmlns:xlink="http://www.w3.org/1999/xlink" xml:space="preserve" xmlns:serif="http://www.serif.com/" style="fill-rule:evenodd;clip-rule:evenodd;stroke-linejoin:round;stroke-miterlimit:2;"><g><path d="M23.321,25l-17.328,0c-0.552,-0 -1,0.448 -1,1c-0,0.552 0.448,1 1,1l19,0c1.116,0 1.892,0.082 2.357,0.64c0.522,0.627 0.643,1.689 0.643,3.36c-0,1.677 -0.78,3.499 -1.678,5.572c-1.486,3.433 -3.322,7.472 -3.322,12.428c-0,3.521 0.925,5.796 2.193,7.275c1.889,2.204 4.6,2.695 6.614,2.724l0.392,-0c2.005,-0.029 4.721,-0.52 6.615,-2.723c1.271,-1.479 2.2,-3.755 2.2,-7.276c-0,-4.956 -1.836,-8.995 -3.322,-12.428c-0.898,-2.073 -1.678,-3.895 -1.678,-5.572c-0,-1.671 0.121,-2.733 0.643,-3.36c0.465,-0.558 1.241,-0.64 2.357,-0.64c-0,-0 19,-0 19,-0c0.552,-0 1,-0.448 1,-1c-0,-0.552 -0.448,-1 -1,-1l-17.328,-0c-0.157,-0.487 -0.459,-1.093 -1.038,-1.694c-1.064,-1.104 -3.203,-2.298 -7.612,-2.306l-0.066,0c-4.404,0.01 -6.541,1.203 -7.604,2.306c-0.579,0.601 -0.881,1.206 -1.038,1.694Zm15.137,0.013c-0.623,-0.865 -2.244,-2.01 -6.458,-2.013c-4.214,0.003 -5.835,1.148 -6.458,2.013c1.578,0.076 2.638,0.499 3.344,1.347c0.728,0.874 1.107,2.31 1.107,4.64c-0,1.91 -0.82,4.006 -1.842,6.366c-1.394,3.218 -3.158,6.99 -3.158,11.634c-0,2.879 0.675,4.764 1.711,5.973c1.506,1.757 3.72,2.027 5.289,2.027l0.007,-0c1.562,-0 3.78,-0.27 5.29,-2.028c1.039,-1.209 1.717,-3.093 1.717,-5.972c-0,-4.644 -1.764,-8.416 -3.158,-11.634c-1.022,-2.36 -1.842,-4.456 -1.842,-6.366c-0,-2.33 0.379,-3.766 1.107,-4.64c0.706,-0.848 1.766,-1.271 3.344,-1.347Zm-7.958,24.487c1.38,-0 2.5,1.12 2.5,2.5c-0,1.38 -1.12,2.5 -2.5,2.5c-1.38,-0 -2.5,-1.12 -2.5,-2.5c-0,-1.38 1.12,-2.5 2.5,-2.5Zm5.215,-4.465c0.947,-0 1.715,0.768 1.715,1.715c-0,0.947 -0.768,1.715 -1.715,1.715c-0.947,-0 -1.715,-0.768 -1.715,-1.715c-0,-0.947 0.768,-1.715 1.715,-1.715Zm-6.465,-2.035c0.69,-0 1.25,0.56 1.25,1.25c-0,0.69 -0.56,1.25 -1.25,1.25c-0.69,-0 -1.25,-0.56 -1.25,-1.25c-0,-0.69 0.56,-1.25 1.25,-1.25Zm3.75,-5.5c0.947,-0 1.715,0.768 1.715,1.715c-0,0.947 -0.768,1.715 -1.715,1.715c-0.947,-0 -1.715,-0.768 -1.715,-1.715c-0,-0.947 0.768,-1.715 1.715,-1.715Zm-13.212,-23.952c2.101,1.669 4.665,3.527 7.068,4.805c1.898,1.009 3.715,1.647 5.162,1.647c1.865,-0 4.352,-1.084 6.836,-2.616c2.547,-1.57 5.113,-3.586 6.984,-5.154l-0.094,1.908c-0.027,0.551 0.398,1.021 0.95,1.048c0.551,0.027 1.021,-0.398 1.048,-0.95l0.258,-5.236l-5.237,-0.258c-0.551,-0.027 -1.021,0.398 -1.048,0.95c-0.027,0.551 0.398,1.021 0.95,1.048l1.736,0.085c-1.795,1.499 -4.204,3.382 -6.597,4.857c-2.115,1.305 -4.198,2.318 -5.786,2.318c-1.19,-0 -2.663,-0.584 -4.224,-1.413c-2.282,-1.214 -4.712,-2.978 -6.716,-4.567c0.433,-1.145 0.133,-2.487 -0.847,-3.332c-1.254,-1.082 -3.15,-0.942 -4.231,0.312c-1.082,1.254 -0.941,3.15 0.313,4.231c0.997,0.86 2.399,0.947 3.475,0.317Zm-0.758,-1.938l-0.002,0.003c-0.36,0.417 -0.991,0.464 -1.409,0.104c-0.418,-0.361 -0.465,-0.993 -0.105,-1.411c0.361,-0.418 0.993,-0.464 1.411,-0.104c0.417,0.36 0.464,0.99 0.105,1.408Z"/></g></svg>