<?xml version="1.0" encoding="UTF-8" standalone="no"?><!DOCTYPE svg PUBLIC "-//W3C//DTD SVG 1.1//EN" "http://www.w3.org/Graphics/SVG/1.1/DTD/svg11.dtd"><svg width="100%" height="100%" viewBox="0 0 65 65" version="1.1" xmlns="http://www.w3.org/2000/svg" xmlns:xlink="http://www.w3.org/1999/xlink" xml:space="preserve" xmlns:serif="http://www.serif.com/" style="fill-rule:evenodd;clip-rule:evenodd;stroke-linejoin:round;stroke-miterlimit:2;"><g><path d="M34.827,8.686c1.753,0.215 3.455,0.631 5.077,1.227c7.817,2.867 13.804,9.894 14.916,18.718c1.586,12.587 -7.347,24.094 -19.934,25.68c-12.587,1.586 -24.094,-7.347 -25.68,-19.934c-0.93,-7.388 1.763,-14.403 6.692,-19.26l-0.229,1.478c-0.085,0.545 0.29,1.057 0.835,1.141c0.545,0.085 1.057,-0.29 1.141,-0.835l0.802,-5.181l-5.181,-0.802c-0.545,-0.085 -1.057,0.29 -1.141,0.835c-0.085,0.545 0.29,1.057 0.835,1.141l2.038,0.316c-5.677,5.29 -8.818,13.138 -7.776,21.417c1.724,13.683 14.231,23.392 27.914,21.668c13.683,-1.724 23.392,-14.231 21.668,-27.914c-1.208,-9.59 -7.715,-17.229 -16.211,-20.346c-1.831,-0.672 -3.754,-1.134 -5.737,-1.36c-0.41,-1.206 -1.565,-2.063 -2.907,-2.034l0,0c-1.654,0.036 -2.97,1.409 -2.934,3.065l0,-0c0.036,1.654 1.409,2.97 3.065,2.934c1.265,-0.028 2.331,-0.836 2.747,-1.954Zm-2.814,8.314c-0.234,-0.002 -0.47,0.078 -0.661,0.244c-0,-0 -9.429,8.201 -9.429,18.431c0,3.247 0.931,5.461 2.194,6.984c2.801,3.38 7.353,3.36 7.896,3.345c0.51,0.015 5.084,0.047 7.896,-3.345c1.263,-1.523 2.194,-3.737 2.194,-6.984c0,-10.229 -9.428,-18.431 -9.428,-18.431c-0.191,-0.166 -0.427,-0.246 -0.662,-0.244Zm0,2.356c-2.022,1.955 -8.09,8.478 -8.09,16.319c0,2.645 0.705,4.467 1.733,5.707c2.362,2.849 6.303,2.623 6.303,2.623l0.108,0c-0,0 3.941,0.226 6.303,-2.623c1.028,-1.24 1.733,-3.062 1.733,-5.707c0,-7.841 -6.068,-14.364 -8.09,-16.319Zm-1.252,21.751c-0,-0 -2.748,-0.593 -3.66,-3.024c-0.194,-0.517 -0.77,-0.779 -1.287,-0.585c-0.517,0.194 -0.779,0.77 -0.585,1.287c1.278,3.407 5.098,4.274 5.098,4.274c0.539,0.12 1.073,-0.22 1.193,-0.759c0.12,-0.539 -0.22,-1.073 -0.759,-1.193Zm-3.665,-14.432c-0,-0 -1.532,3.083 -1.917,5.392c-0.091,0.544 0.277,1.06 0.822,1.15c0.544,0.091 1.06,-0.277 1.15,-0.822c0.345,-2.069 1.733,-4.826 1.733,-4.826c0.247,-0.493 0.047,-1.095 -0.447,-1.341c-0.493,-0.247 -1.095,-0.047 -1.341,0.447Zm5.918,-19.062l0,0.012c0.009,0.549 -0.428,1.003 -0.978,1.015c-0.552,0.012 -1.009,-0.426 -1.021,-0.978c-0.012,-0.552 0.426,-1.009 0.978,-1.021l-0,-0c0.55,-0.012 1.006,0.423 1.021,0.972Z"/></g></svg>